<svg xmlns="http://www.w3.org/2000/svg" width="42.827" height="50.965" viewBox="0 0 42.827 50.965">
  <path id="Icon_awesome-apple" data-name="Icon awesome-apple" d="M36.088,29.182c-.023-4.176,1.866-7.328,5.689-9.649-2.139-3.061-5.37-4.745-9.637-5.075-4.039-.319-8.454,2.355-10.07,2.355-1.707,0-5.621-2.241-8.693-2.241-6.349.1-13.1,5.063-13.1,15.156A28.359,28.359,0,0,0,1.92,38.967c1.456,4.176,6.713,14.416,12.2,14.245,2.867-.068,4.893-2.037,8.625-2.037,3.618,0,5.5,2.037,8.693,2.037,5.53-.08,10.286-9.387,11.674-13.574-7.419-3.493-7.02-10.24-7.02-10.457ZM29.648,10.5A10.717,10.717,0,0,0,32.379,2.25a12.065,12.065,0,0,0-7.726,3.971A10.884,10.884,0,0,0,21.74,14.4c2.97.228,5.678-1.3,7.908-3.9Z" transform="translate(-0.281 -2.25)" fill="#fff"/>
</svg>
