<svg xmlns="http://www.w3.org/2000/svg" width="101" height="30.143" viewBox="0 0 101 30.143"><defs><style>.a{fill:#fff;}.b{fill:#3bbff0;}</style></defs><g transform="translate(0 -1052.3)"><path class="a" d="M1496.735,1153.458h1.515v-.377l-.381-.38h-1.889l-.38.38v3.023l.38.377h1.889l.381-.377v-.377h-1.515v-.757h1.515v-.754h-1.515Z" transform="translate(-1445.247 -97.02)"/><rect class="b" width="2.138" height="2.138" transform="translate(50.609 1052.3)"/><path class="a" d="M1378.069,1152.7v1.515h-1.135V1152.7h-.754l-.38.38v3.023l.38.377h.754v-1.512h1.135v1.512h.758l.377-.377v-3.023l-.377-.38Z" transform="translate(-1329.48 -97.02)"/><path class="a" d="M1256.38,1152.7l-.38.38v.377h1.135v2.646l.38.377h.377l.377-.377v-2.646h1.135v-.377l-.377-.38Z" transform="translate(-1213.714 -97.02)"/><path class="a" d="M1.512,1303.7,0,1305.215v6.05l1.512,1.512h6.05v3.023H4.538v-1.511H0v3.027l1.512,1.512h9.077l1.512-1.512v-6.05l-1.512-1.515H4.538v-3.023H7.562v1.512H12.1v-3.023l-1.512-1.515Z" transform="translate(0 -242.936)"/><path class="a" d="M1257.9,1303.7v15.127h10.588l1.512-1.512v-12.1l-1.512-1.512H1257.9Zm4.538,3.027h3.027v9.077h-3.027Z" transform="translate(-1215.55 -242.936)"/><path class="a" d="M1662.2,1303.7v15.127h10.588l1.512-1.512v-4.538l-1.512-1.511,1.512-1.512v-4.538l-1.512-1.512H1662.2Zm4.538,9.077h3.027v3.027h-3.027v-3.027m0-3.027v-3.023h3.027v3.023Z" transform="translate(-1606.238 -242.936)"/><path class="a" d="M2068.112,1303.7l-1.512,1.512v12.1l1.512,1.512h9.073l1.511-1.512v-12.1l-1.511-1.512Zm3.023,3.027h3.027v9.077h-3.027Z" transform="translate(-1997.023 -242.936)"/><rect class="b" width="4.04" height="4.04" transform="translate(95.286 1068.328) rotate(-45)"/><rect class="b" width="4.04" height="4.04" transform="translate(16.636 1079.586) rotate(-45)"/><path class="a" d="M2478.462,1303.7v4.538l-1.512,1.512-1.511-1.512V1303.7h-3.027l-1.512,1.515v4.535l1.512,1.515-1.512,1.512v4.538l1.512,1.512h3.027v-4.538l1.511-1.512,1.512,1.512v4.538h3.027l1.511-1.512v-4.538l-1.511-1.512,1.511-1.515v-4.535l-1.511-1.515Z" transform="translate(-2387.711 -242.936)"/><path class="a" d="M817.773,1303.7v4.538l-4.538-4.538h-3.023l-1.512,1.515v12.1l1.512,1.512h3.023v-9.077l4.538,4.538v4.538H820.8l1.512-1.512v-12.1L820.8,1303.7Z" transform="translate(-781.473 -242.936)"/><path class="a" d="M414.985,1304.7h-9.073l-1.512,1.512v12.1l1.512,1.512h3.027v-6.05h3.023v6.053h3.023l1.512-1.512v-12.1Zm-4.538,6.605-1.933-1.932,1.933-1.933,1.933,1.933Z" transform="translate(-390.785 -243.902)"/></g></svg>